<?xml version="1.0" encoding="utf-8"?>
<!-- Generator: Adobe Illustrator 25.0.0, SVG Export Plug-In . SVG Version: 6.00 Build 0)  -->
<svg version="1.1" id="katman_1" xmlns="http://www.w3.org/2000/svg" xmlns:xlink="http://www.w3.org/1999/xlink" x="0px" y="0px"
	 viewBox="0 0 841.89 595.28" style="enable-background:new 0 0 841.89 595.28;" xml:space="preserve">
<style type="text/css">
	.st0{fill:#0080C9;}
	.st1{fill:#0075B3;}
	.st2{fill:#005D9F;}
	.st3{fill:#0097D7;}
	.st4{fill:#83D0F5;}
	.st5{fill:url(#SVGID_1_);}
	.st6{fill:url(#SVGID_2_);}
	.st7{fill:url(#SVGID_3_);}
	.st8{fill:url(#SVGID_4_);}
	.st9{fill:url(#SVGID_5_);}
	.st10{fill:url(#SVGID_6_);}
	.st11{fill:url(#SVGID_7_);}
	.st12{fill:url(#SVGID_8_);}
	.st13{fill:url(#SVGID_9_);}
	.st14{clip-path:url(#SVGID_11_);fill:#0080C9;}
</style>
<g>
	<rect x="404.64" y="-118.29" class="st0" width="83.01" height="84.32"/>
	<rect x="492.56" y="-118.29" class="st1" width="83.01" height="84.32"/>
	<rect x="580.45" y="-118.29" class="st2" width="83.02" height="84.32"/>
	<rect x="313.29" y="-118.29" class="st3" width="83.01" height="84.32"/>
	<rect x="225.56" y="-118.29" class="st4" width="83.01" height="84.32"/>
</g>
<g>
	<linearGradient id="SVGID_1_" gradientUnits="userSpaceOnUse" x1="511.7508" y1="372.528" x2="338.4162" y2="367.9909">
		<stop  offset="0" style="stop-color:#005D9F"/>
		<stop  offset="0.1125" style="stop-color:#0069AA"/>
		<stop  offset="0.4086" style="stop-color:#0089C4"/>
		<stop  offset="0.5513" style="stop-color:#0095CE"/>
		<stop  offset="0.9835" style="stop-color:#0082C2"/>
	</linearGradient>
	<path class="st5" d="M371.26,362.64c-1.72,0-3.19,0.61-4.4,1.81c-1.21,1.21-1.81,2.68-1.81,4.41c0,1.72,0.61,3.18,1.81,4.4
		c1.21,1.21,2.68,1.81,4.4,1.81c1.72,0,3.19-0.6,4.4-1.81c1.2-1.21,1.81-2.68,1.81-4.4c0-1.73-0.61-3.2-1.81-4.41
		C374.45,363.25,372.98,362.64,371.26,362.64z"/>
	<linearGradient id="SVGID_2_" gradientUnits="userSpaceOnUse" x1="293.7207" y1="368.8545" x2="360.2285" y2="368.8545">
		<stop  offset="0" style="stop-color:#0082C2"/>
		<stop  offset="0.0804" style="stop-color:#0077B8"/>
		<stop  offset="0.2161" style="stop-color:#0067A9"/>
		<stop  offset="0.3435" style="stop-color:#005A9E"/>
		<stop  offset="0.4582" style="stop-color:#005298"/>
		<stop  offset="0.5493" style="stop-color:#005095"/>
		<stop  offset="0.6288" style="stop-color:#005297"/>
		<stop  offset="0.7189" style="stop-color:#00599D"/>
		<stop  offset="0.8143" style="stop-color:#0064A6"/>
		<stop  offset="0.9127" style="stop-color:#0073B4"/>
		<stop  offset="1" style="stop-color:#0082C2"/>
	</linearGradient>
	<polygon class="st6" points="327.79,376.17 308.43,334.5 293.72,400.43 305.82,400.43 311.86,369.96 326.98,403.37 342.75,369.87 
		348.14,400.43 360.23,400.43 346.5,334.34 	"/>
	<linearGradient id="SVGID_3_" gradientUnits="userSpaceOnUse" x1="512.6158" y1="353.524" x2="338.7704" y2="348.9735">
		<stop  offset="0" style="stop-color:#005D9F"/>
		<stop  offset="0.1125" style="stop-color:#0069AA"/>
		<stop  offset="0.4086" style="stop-color:#0089C4"/>
		<stop  offset="0.5513" style="stop-color:#0095CE"/>
		<stop  offset="0.9835" style="stop-color:#0082C2"/>
	</linearGradient>
	<path class="st7" d="M387.5,350.24h-0.02l0.02,0.02C387.5,350.25,387.5,350.25,387.5,350.24z"/>
	<linearGradient id="SVGID_4_" gradientUnits="userSpaceOnUse" x1="511.4242" y1="373.4091" x2="365.1744" y2="369.5809">
		<stop  offset="0" style="stop-color:#005D9F"/>
		<stop  offset="0.1125" style="stop-color:#0069AA"/>
		<stop  offset="0.4086" style="stop-color:#0089C4"/>
		<stop  offset="0.5513" style="stop-color:#0095CE"/>
		<stop  offset="0.9835" style="stop-color:#0082C2"/>
	</linearGradient>
	<path class="st8" d="M494.31,372.97c0,0,0-0.01,0.01-0.01l-0.02,0.01H494.31z"/>
	<linearGradient id="SVGID_5_" gradientUnits="userSpaceOnUse" x1="406.1427" y1="341.9604" x2="405.1218" y2="377.3534">
		<stop  offset="0" style="stop-color:#0082C2"/>
		<stop  offset="0.0804" style="stop-color:#0077B8"/>
		<stop  offset="0.2161" style="stop-color:#0067A9"/>
		<stop  offset="0.3435" style="stop-color:#005A9E"/>
		<stop  offset="0.4582" style="stop-color:#005298"/>
		<stop  offset="0.5493" style="stop-color:#005095"/>
		<stop  offset="0.6288" style="stop-color:#005297"/>
		<stop  offset="0.7189" style="stop-color:#00599D"/>
		<stop  offset="0.8143" style="stop-color:#0064A6"/>
		<stop  offset="0.9127" style="stop-color:#0073B4"/>
		<stop  offset="1" style="stop-color:#0082C2"/>
	</linearGradient>
	<path class="st9" d="M425.71,379.02c-0.12-0.87-0.31-1.7-0.54-2.51c-0.02-0.08-0.04-0.17-0.07-0.25c-0.25-0.82-0.55-1.61-0.9-2.37
		c-0.03-0.04-0.05-0.09-0.07-0.13c-0.54-1.12-1.18-2.19-1.97-3.18c-2.51-3.11-6.28-5.67-11.29-7.7l-6.05-2.45
		c-3.71-1.48-5.57-3.36-5.57-5.65c0-0.36,0.04-0.72,0.11-1.06c0.04-0.15,0.1-0.3,0.14-0.46l0.01-0.05c0.06-0.2,0.12-0.39,0.2-0.57
		c0.02-0.04,0.04-0.08,0.06-0.12c0.16-0.33,0.37-0.65,0.61-0.95c0.24-0.3,0.52-0.6,0.84-0.88c1.36-1.14,3.1-1.71,5.24-1.71
		c1.69,0,3.11,0.32,4.25,0.99c0.33,0.21,0.78,0.62,1.35,1.22c0.57,0.6,1.24,1.56,2,2.86l0.73,1.39l10.15-5.97l-0.82-1.31
		c-4.2-7.26-10.06-10.88-17.59-10.88c-5.62,0-10.26,1.67-13.91,5c-3.82,3.38-5.73,7.55-5.73,12.51c0,5.71,2.71,10.33,8.06,13.88
		l-0.01,0.01l0.04,0c1.54,1.02,3.26,1.96,5.24,2.8l5.72,2.37c1.47,0.66,2.7,1.31,3.69,1.96c0.97,0.66,1.74,1.31,2.29,1.96
		c0.6,0.71,1.01,1.42,1.23,2.13c0.26,0.71,0.4,1.61,0.4,2.7c0,2.51-0.76,4.55-2.29,6.14c-0.82,0.76-1.71,1.35-2.66,1.76
		c-0.95,0.41-2.05,0.62-3.31,0.62c-0.68,0-1.3-0.07-1.9-0.18c-0.14-0.02-0.27-0.04-0.4-0.07c-0.54-0.12-1.06-0.3-1.54-0.51
		c-0.14-0.06-0.26-0.13-0.39-0.2c-0.35-0.18-0.67-0.4-0.99-0.64c-0.17-0.12-0.34-0.24-0.5-0.38c-0.42-0.38-0.82-0.8-1.15-1.29
		c-0.33-0.43-0.66-1.13-0.99-2.09c-0.33-0.95-0.63-2.43-0.9-4.46l-0.24-1.8l-12.27,2.79l0.16,1.47c0.93,6,3.2,10.63,6.79,13.91
		c0.56,0.52,1.15,0.98,1.77,1.42c0.1,0.07,0.18,0.14,0.28,0.2c0.63,0.44,1.29,0.83,1.97,1.18c0.01,0.01,0.01,0.01,0.02,0.01v0v0
		c0.01,0,0.01,0.01,0.02,0.01c0.5,0.25,1.01,0.49,1.54,0.7c0.07,0.03,0.15,0.06,0.23,0.09c0.46,0.18,0.94,0.34,1.42,0.49
		c0.12,0.04,0.24,0.07,0.36,0.11c0.46,0.12,0.93,0.24,1.41,0.34c0.14,0.03,0.27,0.07,0.41,0.09c0.61,0.11,1.22,0.21,1.85,0.28
		c0.93,0.11,1.81,0.16,2.66,0.16c0.85,0,1.68-0.05,2.5-0.16c0.65-0.07,1.28-0.16,1.9-0.27c0.13-0.02,0.26-0.06,0.41-0.09
		c0.5-0.11,0.99-0.22,1.48-0.35c0.09-0.03,0.17-0.05,0.26-0.08c0.54-0.15,1.06-0.33,1.57-0.53c0.03-0.02,0.06-0.03,0.1-0.04
		c0.55-0.22,1.1-0.46,1.63-0.73c0,0,0.01,0,0.01,0l0,0v0c0.01,0,0.02-0.01,0.03-0.01c0.44-0.22,0.87-0.46,1.29-0.72
		c0.05-0.03,0.1-0.06,0.14-0.09c0.39-0.24,0.77-0.48,1.15-0.75c0.13-0.1,0.26-0.2,0.39-0.3c0.29-0.21,0.58-0.42,0.86-0.65
		c0.42-0.35,0.82-0.72,1.22-1.11c4.03-3.86,6.06-8.8,6.06-14.81c0-0.95-0.07-1.87-0.19-2.76
		C425.73,379.19,425.72,379.1,425.71,379.02z"/>
	<linearGradient id="SVGID_6_" gradientUnits="userSpaceOnUse" x1="460.2603" y1="343.5219" x2="459.2394" y2="378.914">
		<stop  offset="0" style="stop-color:#0082C2"/>
		<stop  offset="0.0804" style="stop-color:#0077B8"/>
		<stop  offset="0.2161" style="stop-color:#0067A9"/>
		<stop  offset="0.3435" style="stop-color:#005A9E"/>
		<stop  offset="0.4582" style="stop-color:#005298"/>
		<stop  offset="0.5493" style="stop-color:#005095"/>
		<stop  offset="0.6288" style="stop-color:#005297"/>
		<stop  offset="0.7189" style="stop-color:#00599D"/>
		<stop  offset="0.8143" style="stop-color:#0064A6"/>
		<stop  offset="0.9127" style="stop-color:#0073B4"/>
		<stop  offset="1" style="stop-color:#0082C2"/>
	</linearGradient>
	<path class="st10" d="M485.3,363.95c-0.96-1.5-2.25-2.7-3.88-3.59c-1.04-0.57-2.3-0.95-3.73-1.15l0-0.03l-0.02,0.02
		c-0.79-0.11-1.63-0.19-2.54-0.19c-2.35,0-4.56,0.56-6.66,1.67c-2.09,1.12-3.77,2.66-5.02,4.62c-2.56-4.19-6.41-6.29-11.52-6.29
		c-1.85,0-3.67,0.42-5.47,1.26c-1.8,0.85-3.24,2.06-4.33,3.64l-0.17-0.05v-3.54h-11.44v19.99v20.13h11.44v-19.69
		c0-1.04,0.02-2.27,0.04-3.72c0.03-1.44,0.22-2.82,0.57-4.13c0.36-1.31,0.96-2.42,1.8-3.35c0.84-0.93,2.06-1.39,3.64-1.39
		c1.47,0,2.58,0.44,3.34,1.31c0.76,0.87,1.31,1.94,1.64,3.18c0.33,1.26,0.49,2.56,0.49,3.92c0,1.37,0,2.54,0,3.51v20.35h11.18h0.26
		v-19.69c0-1.04,0.02-2.27,0.08-3.72c0.05-1.44,0.27-2.82,0.65-4.13c0.36-1.21,0.92-2.24,1.65-3.13l0.66-0.67
		c0.78-0.62,1.8-0.94,3.09-0.94c1.42,0,2.49,0.39,3.23,1.18c0.73,0.79,1.26,1.77,1.59,2.94c0.33,1.17,0.51,2.4,0.54,3.68
		c0.02,1.28,0.04,2.41,0.04,3.39v3.18v17.9h11.43v-17.9v-6.39v-0.71c0-2.18-0.19-4.26-0.57-6.25
		C486.92,367.2,486.25,365.45,485.3,363.95z"/>
	<linearGradient id="SVGID_7_" gradientUnits="userSpaceOnUse" x1="514.8856" y1="345.0989" x2="513.8647" y2="380.4908">
		<stop  offset="0" style="stop-color:#0082C2"/>
		<stop  offset="0.0804" style="stop-color:#0077B8"/>
		<stop  offset="0.2161" style="stop-color:#0067A9"/>
		<stop  offset="0.3435" style="stop-color:#005A9E"/>
		<stop  offset="0.4582" style="stop-color:#005298"/>
		<stop  offset="0.5493" style="stop-color:#005095"/>
		<stop  offset="0.6288" style="stop-color:#005297"/>
		<stop  offset="0.7189" style="stop-color:#00599D"/>
		<stop  offset="0.8143" style="stop-color:#0064A6"/>
		<stop  offset="0.9127" style="stop-color:#0073B4"/>
		<stop  offset="1" style="stop-color:#0082C2"/>
	</linearGradient>
	<path class="st11" d="M522.69,360.52v3.76c-1.42-1.64-3.12-2.89-5.11-3.76c-0.82-0.36-1.65-0.63-2.47-0.84l-0.01-0.02l-0.01,0.01
		c-1.18-0.3-2.38-0.47-3.59-0.47c-2.88,0-5.46,0.6-7.72,1.8c-2.26,1.2-4.18,2.79-5.76,4.78c-1.58,1.99-2.78,4.25-3.59,6.78
		c-0.01,0.04-0.05,0.22-0.12,0.46l0,0.01c-0.2,0.66-0.37,1.33-0.52,2c-0.01,0.03-0.02,0.07-0.02,0.08l0-0.01
		c-0.37,1.73-0.57,3.49-0.57,5.27c0,2.72,0.41,5.38,1.22,7.96c0.61,1.92,1.47,3.65,2.49,5.25l-0.03,0.05
		c0.12,0.19,0.26,0.36,0.38,0.54c0.2,0.29,0.4,0.58,0.62,0.87c0.05,0.06,0.08,0.12,0.13,0.19c0.16,0.2,0.34,0.38,0.51,0.57
		c0.14,0.17,0.27,0.33,0.42,0.49c0.25,0.27,0.5,0.53,0.77,0.78c0.11,0.11,0.23,0.21,0.33,0.31c0.45,0.41,0.91,0.79,1.4,1.16
		c0.49,0.37,0.99,0.7,1.46,1c0.3,0.18,0.6,0.37,0.91,0.54c0.77,0.42,1.61,0.74,2.46,1.02c0.36,0.11,0.72,0.24,1.09,0.33
		c0.08,0.02,0.15,0.04,0.21,0.05c0.95,0.23,1.55,0.28,1.55,0.28c0.1,0.01,0.19,0.02,0.29,0.03c0.06,0.01,0.12,0.01,0.19,0.02
		c1.45,0.18,2.78,0.13,4.01-0.04c0.08-0.01,0.16-0.02,0.23-0.03c0.68-0.11,1.33-0.24,1.94-0.43c0.42-0.13,0.82-0.28,1.2-0.44
		c0.24-0.09,0.48-0.15,0.71-0.26c1.73-0.77,3.17-1.83,4.36-3.16c0.15-0.17,0.31-0.34,0.46-0.52h0.17v3.67h11.28v-21.09v-19.02
		H522.69z M523.18,384.57c-0.24,0.75-0.57,1.44-0.94,2.1c-0.29,0.52-0.61,1.03-0.98,1.49c-0.85,1.06-1.85,1.94-3.02,2.61
		c-1.17,0.68-2.49,1.03-3.96,1.03c-1.03,0-1.99-0.18-2.88-0.52l-0.02-0.01l-0.39-0.2l-0.89-0.45c0.01,0.01,0.01,0.02,0.02,0.02
		l-0.02-0.01v-0.01c-1.08-0.65-2.01-1.46-2.77-2.46c-0.82-1.06-1.44-2.26-1.88-3.6c-0.43-1.33-0.65-2.68-0.65-4.04
		c0-1.37,0.22-2.71,0.65-4.04c0.18-0.54,0.41-1.04,0.65-1.54l0.27-0.53c0.28-0.54,0.6-1.04,0.96-1.52c0.82-1.07,1.81-1.92,2.98-2.58
		c0.29-0.16,0.58-0.29,0.88-0.41c0.03-0.01,0.07-0.02,0.1-0.04c0.27-0.1,0.55-0.2,0.86-0.27c0.01-0.01,0.03-0.01,0.04-0.01
		c0.35-0.1,0.75-0.15,1.15-0.19c0.15-0.02,0.3-0.02,0.46-0.03c0.4-0.02,0.8-0.03,1.25,0.02c0.42,0.04,0.83,0.13,1.23,0.22
		c0.29,0.07,0.59,0.16,0.9,0.28c0.36,0.13,0.72,0.25,1.06,0.44c1.17,0.66,2.17,1.51,3.02,2.58c0.85,1.06,1.48,2.26,1.92,3.59
		c0.43,1.34,0.65,2.68,0.65,4.04C523.83,381.89,523.61,383.24,523.18,384.57z"/>
	<linearGradient id="SVGID_8_" gradientUnits="userSpaceOnUse" x1="555.7553" y1="346.2762" x2="554.7344" y2="381.6691">
		<stop  offset="0" style="stop-color:#0082C2"/>
		<stop  offset="0.0804" style="stop-color:#0077B8"/>
		<stop  offset="0.2161" style="stop-color:#0067A9"/>
		<stop  offset="0.3435" style="stop-color:#005A9E"/>
		<stop  offset="0.4582" style="stop-color:#005298"/>
		<stop  offset="0.5493" style="stop-color:#005095"/>
		<stop  offset="0.6288" style="stop-color:#005297"/>
		<stop  offset="0.7189" style="stop-color:#00599D"/>
		<stop  offset="0.8143" style="stop-color:#0064A6"/>
		<stop  offset="0.9127" style="stop-color:#0073B4"/>
		<stop  offset="1" style="stop-color:#0082C2"/>
	</linearGradient>
	<path class="st12" d="M563.77,359.01c-2.12,0-4.03,0.47-5.72,1.43c-1.69,0.95-3.1,2.3-4.25,4.05h-0.17v-4.17h-11.07h-0.37v17.26
		v3.8v0.47v7.23v10.84v0.52h11.09h0.34V386.1v-3.73c0-1.13,0.06-2.29,0.15-3.45c0.03-0.4,0.05-0.8,0.09-1.21
		c0.17-1.58,0.55-3.01,1.15-4.29c0.6-1.28,1.48-2.31,2.65-3.1c1.17-0.79,2.74-1.19,4.7-1.19c0.74,0,1.45,0.11,2.14,0.29l2.6,1.18
		l1.39-10.62c-0.76-0.27-1.54-0.51-2.33-0.69C565.39,359.11,564.59,359.01,563.77,359.01z"/>
	<linearGradient id="SVGID_9_" gradientUnits="userSpaceOnUse" x1="584.6353" y1="347.1096" x2="583.6143" y2="382.502">
		<stop  offset="0" style="stop-color:#0082C2"/>
		<stop  offset="0.0804" style="stop-color:#0077B8"/>
		<stop  offset="0.2161" style="stop-color:#0067A9"/>
		<stop  offset="0.3435" style="stop-color:#005A9E"/>
		<stop  offset="0.4582" style="stop-color:#005298"/>
		<stop  offset="0.5493" style="stop-color:#005095"/>
		<stop  offset="0.6288" style="stop-color:#005297"/>
		<stop  offset="0.7189" style="stop-color:#00599D"/>
		<stop  offset="0.8143" style="stop-color:#0064A6"/>
		<stop  offset="0.9127" style="stop-color:#0073B4"/>
		<stop  offset="1" style="stop-color:#0082C2"/>
	</linearGradient>
	<polygon class="st13" points="588.28,360.32 588.28,346.76 576.84,346.76 576.84,360.32 572.92,360.32 572.92,369.96 
		576.84,369.96 576.84,386.31 576.84,400.43 588.28,400.43 588.28,384.83 588.28,370.27 588.28,369.96 595.31,369.96 595.31,360.32 
			"/>
</g>
<g>
	<polygon class="st3" points="341.6,170.02 341.6,170.02 347.97,216.16 360.02,190.59 	"/>
	<polygon class="st2" points="347.97,216.16 399.88,216.16 360.02,190.59 	"/>
	<polygon class="st1" points="366.46,118.76 341.6,170.02 360.02,190.59 	"/>
	<polygon class="st2" points="376.07,157.46 366.46,118.74 366.46,118.76 360.02,190.59 	"/>
	<polygon class="st1" points="319.23,216.16 347.97,216.16 341.6,170.02 	"/>
	<path class="st2" d="M382.22,172.59l34.85,18l-14.58-35.92l-20.12,17.78C382.28,172.45,382.24,172.53,382.22,172.59z"/>
	<polygon class="st1" points="360.02,190.59 399.88,216.16 389.53,190.59 	"/>
	<path class="st0" d="M494.77,137.16l44.79,15.03l-27.34-57.81l-17.47,42.76C494.75,137.15,494.76,137.16,494.77,137.16z"/>
	<polygon class="st0" points="569.8,216.14 539.56,152.2 529.48,190.59 	"/>
	<polygon class="st3" points="513.91,157.73 529.48,190.59 539.56,152.2 539.56,152.2 	"/>
	<polygon class="st2" points="529.48,216.15 569.8,216.14 529.48,190.59 	"/>
	<polygon class="st3" points="529.48,190.59 500.5,190.59 529.46,216.15 529.48,216.15 	"/>
	<polygon class="st1" points="472.9,190.59 490.06,216.16 500.5,190.59 	"/>
	<polygon class="st3" points="389.53,190.59 399.88,216.16 406.95,233.58 417.07,190.59 	"/>
	<polygon class="st3" points="513.91,157.73 472.9,190.59 500.5,190.59 	"/>
	<polygon class="st3" points="435.53,235.98 416.12,256.15 444.95,259.12 	"/>
	<polygon class="st0" points="427.45,216.16 417.07,190.59 406.95,233.58 435.52,235.98 	"/>
	<polygon class="st1" points="472.9,190.59 417.07,190.59 427.45,216.16 	"/>
	<polygon class="st3" points="462.48,216.16 472.9,190.59 427.45,216.16 	"/>
	<polygon class="st1" points="444.95,259.12 467.68,271 467.68,271 460.27,221.6 	"/>
	<polygon class="st0" points="444.95,259.12 416.12,256.15 444.84,326.91 449.28,316.05 436.34,305.97 	"/>
	<polygon class="st2" points="449.28,316.05 467.68,271 444.95,259.12 	"/>
	<g>
		<polygon class="st4" points="389.53,190.59 417.07,190.59 382.22,172.59 		"/>
		<polygon class="st4" points="513.91,157.73 539.56,152.2 539.56,152.2 494.74,137.15 		"/>
		<polygon class="st4" points="490.06,216.16 529.46,216.15 500.5,190.59 		"/>
		<polygon class="st4" points="406.95,233.58 416.12,256.15 435.53,235.98 		"/>
		<polygon class="st4" points="436.34,305.97 449.28,316.05 449.28,316.05 444.95,259.12 		"/>
	</g>
	<g>
		<g>
			<polygon class="st0" points="460.27,221.6 467.68,271 490.07,216.16 			"/>
		</g>
		<g>
			<defs>
				<polygon id="SVGID_10_" points="472.9,190.59 460.27,221.6 490.07,216.16 				"/>
			</defs>
			<use xlink:href="#SVGID_10_"  style="overflow:visible;fill:#0080C9;"/>
			<clipPath id="SVGID_11_">
				<use xlink:href="#SVGID_10_"  style="overflow:visible;"/>
			</clipPath>
			<polygon class="st14" points="462.48,216.16 462.49,216.16 460.27,221.6 490.07,216.16 460.27,221.6 460.27,221.6 467.68,271 
				490.07,216.16 472.9,190.59 			"/>
		</g>
	</g>
	<polygon class="st1" points="472.9,190.59 513.91,157.73 494.75,137.12 	"/>
	<polygon class="st3" points="376.07,157.46 382.22,172.59 402.5,154.67 	"/>
	<polygon class="st0" points="379.38,97.71 379.38,97.7 379.38,97.7 378.14,94.65 366.46,118.74 376.07,157.46 402.5,154.67 	"/>
</g>
</svg>
