<svg xmlns="http://www.w3.org/2000/svg" viewBox="0 0 200 63.43"><defs><style>.cls-1{fill:#fff;}</style></defs><title>ndu-white-text_1</title><g id="katman_2" data-name="katman 2"><g id="katman_1-2" data-name="katman 1"><path class="cls-1" d="M56.55,36.56a4.33,4.33,0,0,0-3.07,7.37l-3.74,6.48H27.47l-2.33-4H46.73l12.7-22L54.88,16.5a4.32,4.32,0,1,0-3.19,1.41,4.58,4.58,0,0,0,.83-.08l3.78,6.55L45.17,43.67H40.51l6.11-10.6.79-1.35L51.3,25h0L38.6,3H29.37a4.33,4.33,0,1,0,0,2.71H37L48.18,25l-2.34,4L39.73,18.42h0l-4.68-8.11H9.65L5.07,18.24a4.56,4.56,0,0,0-.75-.06,4.31,4.31,0,1,0,3.14,1.35L11.21,13H33.49l2.33,4H14.22l-12.7,22,4.53,7.86a4.33,4.33,0,1,0,3.14-1.35,3.64,3.64,0,0,0-.74.07l-3.8-6.58L15.78,19.76h4.67l-6.12,10.6-.78,1.36-3.9,6.74h0l12.69,22h9.24a4.32,4.32,0,1,0,0-2.7H23.91L12.77,38.46l2.34-4L21.23,45,22,46.38l3.9,6.75H51.3l4.6-8a4.74,4.74,0,0,0,.65.05,4.33,4.33,0,1,0,0-8.65Zm-4.86-20a3,3,0,1,1,3-3,3,3,0,0,1-2.4,2.92A2.76,2.76,0,0,1,51.69,16.56ZM28.08,5.26a3,3,0,1,1,0-1.86,2.88,2.88,0,0,1,.15.93A2.92,2.92,0,0,1,28.08,5.26ZM4.32,25.47a3,3,0,0,1,0-5.94,2.84,2.84,0,0,1,.51,0,2.85,2.85,0,0,1,1.64.88,2.93,2.93,0,0,1,.82,2A3,3,0,0,1,4.32,25.47ZM7,47.84A2.91,2.91,0,0,1,8.68,47a3.14,3.14,0,0,1,.51-.05,3,3,0,1,1-3,3A2.94,2.94,0,0,1,7,47.84ZM32.87,58.17a3,3,0,1,1,0,1.86,2.91,2.91,0,0,1-.14-.93A3,3,0,0,1,32.87,58.17ZM17.45,31.72,24,20.44H37L43.5,31.72,37,43H24Zm39.1,12.13a3.15,3.15,0,0,1-.44,0,3,3,0,0,1-2.53-2.94,3,3,0,1,1,3,3Z"/><path class="cls-1" d="M87.76,38.75V27.56c0-4.34-1.71-6.38-5.12-6.38s-5.41,2.49-5.41,6.34V38.75H73.38V18.22H77V20.4h.08a7.19,7.19,0,0,1,6-2.74c4.93,0,8.56,3.11,8.56,8.78V38.75Z"/><path class="cls-1" d="M99.36,30.15a7,7,0,0,0,6.74,5.6A6.59,6.59,0,0,0,112,32.3h3.86a10.54,10.54,0,0,1-9.86,7A10.77,10.77,0,0,1,95.5,28.67c0-6.49,4.89-11,10.34-11a10.45,10.45,0,0,1,10.63,10.56,11.78,11.78,0,0,1-.11,1.93Zm13.26-3a6.66,6.66,0,0,0-13.26,0Z"/><path class="cls-1" d="M120.77,38.75v-17H118V18.22h2.77V11.33h3.86v6.89H128v3.52h-3.37v17Z"/><path class="cls-1" d="M150.16,32a10.58,10.58,0,0,1-20.64-3.3c0-6.19,4.48-11,10.49-11A10.39,10.39,0,0,1,150.16,25H145.9a6.08,6.08,0,0,0-5.78-3.86c-4,0-6.75,3.08-6.75,7.27s2.78,7.3,6.67,7.3A6.19,6.19,0,0,0,145.86,32Z"/><path class="cls-1" d="M170.69,38.75V35.56h-.08a7.78,7.78,0,0,1-7,3.71,10.6,10.6,0,0,1-10.9-10.45c0-6.56,4.71-11.16,10.75-11.16a8.16,8.16,0,0,1,7.11,3.45h.08V18.22h3.85V38.75Zm.07-10.23a7.09,7.09,0,0,0-7.15-7.34,7.29,7.29,0,1,0,7.15,7.34Z"/><path class="cls-1" d="M196.44,38.75V35.82h-.07a8.73,8.73,0,0,1-7.26,3.45A10.45,10.45,0,0,1,178.43,28.7c0-6.26,4.45-11,10.56-11a8.89,8.89,0,0,1,7.08,3.08h.08V11.33H200V38.75Zm-7.15-17.57a7.14,7.14,0,0,0-7,7.34,7.08,7.08,0,1,0,14.15.15C196.44,24.48,193.63,21.18,189.29,21.18Z"/><path class="cls-1" d="M73.38,54.34v-12h3.56a7.47,7.47,0,0,1,4,1.06,6,6,0,0,1,2.62,5,5.87,5.87,0,0,1-1.74,4.15,6.58,6.58,0,0,1-4.91,1.8Zm3.41-1.08A5.47,5.47,0,0,0,81,51.81a5.06,5.06,0,0,0,1.33-3.48,4.78,4.78,0,0,0-1.91-3.9,6.07,6.07,0,0,0-3.68-1H74.58v9.86Z"/><path class="cls-1" d="M85.94,44.36v-2h1.14v2Zm0,10V45.45h1.14v8.89Z"/><path class="cls-1" d="M97.47,52.72h0A3.86,3.86,0,0,1,94,54.56a4.62,4.62,0,0,1-4.65-4.62A4.7,4.7,0,0,1,94,45.22a4,4,0,0,1,3.43,1.83h0v-1.6h1.14V53.4a4.15,4.15,0,0,1-4.34,4.44,4.49,4.49,0,0,1-4.55-3.27h1.2a3.43,3.43,0,0,0,3.33,2.25,3,3,0,0,0,3.22-3.26Zm.07-2.81A3.52,3.52,0,1,0,94,53.53,3.62,3.62,0,0,0,97.54,49.91Z"/><path class="cls-1" d="M101.37,44.36v-2h1.14v2Zm0,10V45.45h1.14v8.89Z"/><path class="cls-1" d="M106.28,54.34V46.48h-1.86v-1h1.86V42.31h1.14v3.14h2.13v1h-2.13v7.86Z"/><path class="cls-1" d="M119.27,54.34V52.78h0a4.08,4.08,0,0,1-3.46,1.78,4.67,4.67,0,1,1,0-9.34A4,4,0,0,1,119.24,47h0V45.45h1.14v8.89Zm.07-4.43a3.61,3.61,0,0,0-3.58-3.66,3.64,3.64,0,1,0,3.58,3.66Z"/><path class="cls-1" d="M123.1,54.34v-12h1.13v12Z"/><path class="cls-1" d="M139.24,42.31h1.2v7.63c0,3-1.77,4.62-4.09,4.62s-4.1-1.53-4.1-4.65v-7.6h1.2V50c0,2.42,1.3,3.5,2.9,3.5,1.38,0,2.89-.86,2.89-3.48Z"/><path class="cls-1" d="M150,54.34v-5c0-2-1.21-3.14-2.77-3.14a2.79,2.79,0,0,0-2.78,3.06v5h-1.14V45.45h1.14v1.14h0a3.22,3.22,0,0,1,2.74-1.37c2.45,0,3.91,1.7,3.91,4.17v5Z"/><path class="cls-1" d="M153.89,44.36v-2H155v2Zm0,10V45.45H155v8.89Z"/><path class="cls-1" d="M160.57,54.34l-3.75-8.89H158l3.13,7.48,3.19-7.48h1.22l-3.76,8.89Z"/><path class="cls-1" d="M168.12,50.31a3.53,3.53,0,0,0,3.44,3.22,3.37,3.37,0,0,0,3.19-2.1H176a4.64,4.64,0,1,1-4.39-6.21A4.76,4.76,0,0,1,176.23,50c0,.12,0,.23,0,.34Zm6.94-1a3.56,3.56,0,0,0-3.5-3,3.51,3.51,0,0,0-3.44,3Z"/><path class="cls-1" d="M178.57,54.34V45.45h1.14v1.29h0a2.48,2.48,0,0,1,2.5-1.52v1.21h0a2.55,2.55,0,0,0-2.52,2.66v5.25Z"/><path class="cls-1" d="M187.5,47.65a1.37,1.37,0,0,0-1.34-1.4,1.33,1.33,0,0,0-1.35,1.33c0,.65.46,1.11,1.55,1.46,2.16.72,2.58,1.58,2.58,2.85a2.55,2.55,0,0,1-2.79,2.67,2.65,2.65,0,0,1-2.73-2.78v-.07h1.13c0,1.19.64,1.82,1.6,1.82a1.48,1.48,0,0,0,1.65-1.59c0-.86-.55-1.33-1.57-1.71-1.56-.57-2.55-1-2.55-2.53a2.43,2.43,0,0,1,2.53-2.48,2.38,2.38,0,0,1,2.42,2.43Z"/><path class="cls-1" d="M191.74,50.31a3.54,3.54,0,0,0,3.45,3.22,3.35,3.35,0,0,0,3.18-2.1h1.21a4.64,4.64,0,1,1-4.39-6.21A4.76,4.76,0,0,1,199.85,50c0,.12,0,.23,0,.34Zm6.94-1a3.5,3.5,0,0,0-6.94,0Z"/></g></g></svg>